<?xml version="1.0" encoding="UTF-8" standalone="no"?>
<!-- Created with Inkscape (http://www.inkscape.org/) -->

<svg
   width="201.57957mm"
   height="23.22295mm"
   viewBox="0 0 201.57957 23.22295"
   version="1.1"
   id="svg1"
   xml:space="preserve"
   inkscape:version="1.3 (0e150ed6c4, 2023-07-21)"
   sodipodi:docname="logo.svg"
   xmlns:inkscape="http://www.inkscape.org/namespaces/inkscape"
   xmlns:sodipodi="http://sodipodi.sourceforge.net/DTD/sodipodi-0.dtd"
   xmlns="http://www.w3.org/2000/svg"
   xmlns:svg="http://www.w3.org/2000/svg"><sodipodi:namedview
     id="namedview1"
     pagecolor="#505050"
     bordercolor="#eeeeee"
     borderopacity="1"
     inkscape:showpageshadow="0"
     inkscape:pageopacity="0"
     inkscape:pagecheckerboard="0"
     inkscape:deskcolor="#505050"
     inkscape:document-units="mm"
     inkscape:zoom="0.97890839"
     inkscape:cx="301.86686"
     inkscape:cy="81.723684"
     inkscape:window-width="1920"
     inkscape:window-height="1020"
     inkscape:window-x="17"
     inkscape:window-y="4"
     inkscape:window-maximized="0"
     inkscape:current-layer="layer1" /><defs
     id="defs1" /><g
     inkscape:label="Layer 1"
     inkscape:groupmode="layer"
     id="layer1"
     transform="translate(-4.8856966,-110.00466)"><path
       style="fill:#ffffff"
       d="m 69.013939,124.33467 v -8.89294 l -0.531193,-0.0797 c -0.292156,-0.0438 -0.822628,-0.0432 -1.178828,10e-4 l -0.647635,0.0809 v -2.60191 -2.60191 h 9.371683 9.371682 v 7.13192 7.13192 h -2.975619 -2.97562 l 2.769806,2.79972 c 1.523394,1.53985 3.405328,3.44955 4.182076,4.24379 l 1.412269,1.44406 H 84.394493 80.976426 L 77.529663,129.686 74.0829,126.38015 v 3.42373 3.42373 h -2.534481 -2.53448 z m 11.316749,-6.96232 V 115.3094 H 77.206794 74.0829 v 2.06295 2.06295 h 3.123894 3.123894 z m 107.329792,15.59238 c -0.0307,-0.0823 -0.0692,-1.84723 -0.0856,-3.92197 l -0.0298,-3.77225 h -1.0316 -1.03161 l 1.3e-4,-2.50501 1.3e-4,-2.50502 h 1.06095 1.06095 v -5.06896 -5.06897 h 8.25179 8.2518 v 5.06897 5.06896 h 1.17883 1.17882 v 2.47555 2.47554 h -1.11988 -1.11989 v 3.94908 3.94908 h -2.59342 -2.59342 v -3.94908 -3.94908 h -3.11595 c -3.0457,0 -3.1177,0.005 -3.19326,0.24357 -0.0678,0.21349 -0.0868,6.52382 -0.0221,7.30094 l 0.0246,0.29471 -2.50781,0.0318 c -1.9427,0.0247 -2.52039,-0.002 -2.56365,-0.11788 z m 11.35106,-15.2682 0.0318,-2.50501 h -3.18518 -3.18518 v 2.45589 c 0,1.35074 0.0362,2.49212 0.0805,2.5364 0.0443,0.0443 1.46329,0.0664 3.15336,0.0491 l 3.07287,-0.0314 z M 25.986718,121.5572 v -11.43465 h 2.53448 2.53448 v 8.90016 8.90017 h 3.123894 3.123894 v -8.90017 -8.90016 h 2.475539 2.475539 v 11.43465 11.43464 h -8.133913 -8.133913 z m 28.085576,11.34855 -0.972533,-0.0413 v -4.64627 -4.64627 l -0.426566,-0.08 c -0.234611,-0.044 -0.765084,-0.0484 -1.178828,-0.01 l -0.752262,0.0702 v -2.53005 -2.53005 h 1.103864 1.103863 l 0.07496,-0.54693 c 0.09444,-0.68902 0.09396,-1.45874 -0.0014,-2.25279 l -0.07434,-0.61889 H 49.66474 46.380442 v -2.47554 -2.47554 h 9.2538 9.253799 v 2.53448 2.53449 H 61.46944 58.050839 v 1.58105 1.58106 l 0.475787,0.0804 c 0.261683,0.0442 0.792155,0.0437 1.178828,-0.001 l 0.703041,-0.0816 v 2.59351 2.59351 l -0.826867,-0.0611 c -0.54008,-0.0399 -0.954658,-0.008 -1.195315,0.0916 l -0.368448,0.15262 0.04596,4.60578 0.04596,4.60577 -1.532476,0.007 c -0.842862,0.004 -1.970116,-0.0115 -2.50501,-0.0342 z m 119.150036,-2.44839 v -2.53448 h 2.29872 2.29871 v -8.95911 -8.95911 h 2.53448 2.53448 v 11.49359 11.49359 h -4.83319 -4.8332 z M 4.8856966,121.49825 v -11.3757 h 2.4744797 2.4744798 l 3.3901899,3.33019 3.390189,3.3302 0.03128,-3.38914 0.03128,-3.38914 h 2.532672 2.532673 v 11.43465 11.43465 h -2.475539 -2.475539 l -0.0028,-4.27326 -0.0028,-4.27325 -3.415795,-3.43744 -3.4157951,-3.43743 v 7.71069 7.71069 H 7.4201767 4.8856966 Z m 84.6398494,8.90017 v -2.47554 h 1.238776 1.238776 l -0.03048,-6.4541 -0.03048,-6.45409 -1.149358,-0.0337 -1.149357,-0.0337 v -2.47127 -2.47128 h 4.892136 4.892136 v 2.47555 2.47554 h -1.178828 -1.178828 v 6.42462 6.42462 h 1.060946 1.060945 v 2.53449 2.53448 H 94.358735 89.52554 Z m 27.348814,-8.90017 v -11.3757 h 2.48727 2.48728 l 3.37739,3.31461 3.37739,3.31461 0.0313,-3.37355 0.0313,-3.37356 h 2.53267 2.53268 v 11.43465 11.43465 h -2.47554 -2.47554 l -0.003,-4.27326 -0.003,-4.27325 -3.4101,-3.47755 -3.4101,-3.47755 -0.006,7.75081 -0.006,7.7508 h -2.53448 -2.53448 z m 21.2189,8.90017 v -2.47554 h 1.17883 1.17883 v -6.48357 -6.48356 h -1.11989 -1.11989 v -2.47554 -2.47555 h 4.8332 4.83319 v 2.47555 2.47554 h -1.17883 -1.17882 v 6.42462 6.42462 h 1.11988 1.11989 v 2.53449 2.53448 h -4.8332 -4.83319 z m 14.02805,-8.90017 v -11.3757 h 2.49561 2.4956 l 3.36906,3.33019 3.36907,3.3302 0.0313,-3.38914 0.0313,-3.38914 h 2.53267 2.53267 v 11.43465 11.43465 h -2.47554 -2.47553 l -0.006,-4.27326 -0.006,-4.27325 -3.4123,-3.47418 -3.41231,-3.47417 v 7.74743 7.74743 h -2.53448 -2.53448 z"
       id="path1" /></g></svg>
