<?xml version="1.0" encoding="UTF-8" standalone="no"?>
<svg
   width="16"
   height="16"
   fill="currentColor"
   class="bi bi-quote"
   viewBox="0 0 16 16"
   version="1.1"
   id="svg1"
   sodipodi:docname="quote-right.svg"
   inkscape:version="1.3 (0e150ed6c4, 2023-07-21)"
   xmlns:inkscape="http://www.inkscape.org/namespaces/inkscape"
   xmlns:sodipodi="http://sodipodi.sourceforge.net/DTD/sodipodi-0.dtd"
   xmlns="http://www.w3.org/2000/svg"
   xmlns:svg="http://www.w3.org/2000/svg">
  <defs
     id="defs1" />
  <sodipodi:namedview
     id="namedview1"
     pagecolor="#505050"
     bordercolor="#eeeeee"
     borderopacity="1"
     inkscape:showpageshadow="0"
     inkscape:pageopacity="0"
     inkscape:pagecheckerboard="0"
     inkscape:deskcolor="#505050"
     inkscape:zoom="48.5625"
     inkscape:cx="8"
     inkscape:cy="8"
     inkscape:window-width="1920"
     inkscape:window-height="991"
     inkscape:window-x="-9"
     inkscape:window-y="-9"
     inkscape:window-maximized="1"
     inkscape:current-layer="svg1" />
  <path
     d="m 3.9998178,12 a 1,1 0 0 1 -1,-1 V 8.558 a 1,1 0 0 1 1,-1 h 1.388 q 0,-0.527 -0.062,-1.054 -0.093,-0.558 -0.31,-0.992 -0.217,-0.4340001 -0.559,-0.6830001 -0.34,-0.279 -0.868,-0.279 v -1.55 q 0.868,0 1.52,0.372 a 3.3,3.3 0 0 1 1.0849999,0.992 4.9,4.9 0 0 1 0.62,1.4580001 7.7,7.7 0 0 1 0.186,1.736 V 11 a 1,1 0 0 1 -0.9999999,1 z m 5.9999999,0 a 1,1 0 0 1 -1,-1 V 8.558 a 1,1 0 0 1 1,-1 h 1.3880003 q 0,-0.527 -0.062,-1.054 -0.094,-0.558 -0.31,-0.992 -0.217,-0.4340001 -0.559,-0.6830001 -0.34,-0.279 -0.8680003,-0.279 v -1.55 q 0.8680003,0 1.5200003,0.372 a 3.3,3.3 0 0 1 1.085,0.992 4.9,4.9 0 0 1 0.62,1.4580001 7.7,7.7 0 0 1 0.186,1.736 V 11 a 1,1 0 0 1 -1,1 z"
     id="path1"
     style="fill:#328746;fill-opacity:1" />
</svg>
