<?xml version="1.0" encoding="UTF-8" standalone="no"?>
<svg
   width="16"
   height="16"
   fill="currentColor"
   class="bi bi-quote"
   viewBox="0 0 16 16"
   version="1.1"
   id="svg1"
   sodipodi:docname="quote-left.svg"
   inkscape:version="1.3 (0e150ed6c4, 2023-07-21)"
   xmlns:inkscape="http://www.inkscape.org/namespaces/inkscape"
   xmlns:sodipodi="http://sodipodi.sourceforge.net/DTD/sodipodi-0.dtd"
   xmlns="http://www.w3.org/2000/svg"
   xmlns:svg="http://www.w3.org/2000/svg">
  <defs
     id="defs1" />
  <sodipodi:namedview
     id="namedview1"
     pagecolor="#505050"
     bordercolor="#eeeeee"
     borderopacity="1"
     inkscape:showpageshadow="0"
     inkscape:pageopacity="0"
     inkscape:pagecheckerboard="0"
     inkscape:deskcolor="#505050"
     inkscape:zoom="48.5625"
     inkscape:cx="8"
     inkscape:cy="7.989704"
     inkscape:window-width="1920"
     inkscape:window-height="991"
     inkscape:window-x="-9"
     inkscape:window-y="-9"
     inkscape:window-maximized="1"
     inkscape:current-layer="svg1" />
  <path
     d="M12 12a1 1 0 0 0 1-1V8.558a1 1 0 0 0-1-1h-1.388q0-.527.062-1.054.093-.558.31-.992t.559-.683q.34-.279.868-.279V3q-.868 0-1.52.372a3.3 3.3 0 0 0-1.085.992 4.9 4.9 0 0 0-.62 1.458A7.7 7.7 0 0 0 9 7.558V11a1 1 0 0 0 1 1zm-6 0a1 1 0 0 0 1-1V8.558a1 1 0 0 0-1-1H4.612q0-.527.062-1.054.094-.558.31-.992.217-.434.559-.683.34-.279.868-.279V3q-.868 0-1.52.372a3.3 3.3 0 0 0-1.085.992 4.9 4.9 0 0 0-.62 1.458A7.7 7.7 0 0 0 3 7.558V11a1 1 0 0 0 1 1z"
     id="path1"
     style="fill:#328746;fill-opacity:1" />
  <path
     style="fill:#328746;stroke-width:0.020592;fill-opacity:1"
     d="M 3.810686,11.972397 C 3.6835152,11.94746 3.445252,11.829132 3.3432257,11.740243 3.2378555,11.64844 3.1309449,11.488547 3.0659875,11.325611 L 3.016731,11.202059 3.0102976,9.2870013 C 3.0026325,7.0052751 3.0159948,6.7179525 3.1640016,5.981982 3.2921795,5.3446116 3.6181063,4.6072522 3.960432,4.1801802 4.3713913,3.6674836 4.9429239,3.2846429 5.542666,3.1203218 5.7467723,3.0643996 6.0730127,3.0170002 6.2548263,3.0168524 L 6.4041184,3.016731 V 3.7741605 4.53159 L 6.2136422,4.5544409 C 5.8813208,4.5943087 5.6668088,4.6948979 5.4107155,4.9309503 5.2146716,5.1116522 5.080521,5.2939719 4.9631264,5.5392535 4.7254533,6.0358419 4.61412,6.5941029 4.6130351,7.2947233 L 4.6126126,7.5675676 H 5.359895 c 0.6039695,0 0.7708194,0.00605 0.8700129,0.03154 0.3463715,0.089013 0.6078713,0.3340452 0.7103417,0.6656099 0.038502,0.1245818 0.040445,0.1974549 0.040445,1.5168268 0,1.3024097 -0.00235,1.3935137 -0.039013,1.5113057 -0.073829,0.237212 -0.2756932,0.476916 -0.4953831,0.588241 -0.2119312,0.107394 -0.2884936,0.11321 -1.4630301,0.111147 -0.5945946,-0.001 -1.122257,-0.01 -1.172583,-0.01984 z"
     id="path2" />
</svg>
